<?xml version="1.0" encoding="UTF-8" standalone="no"?>
<svg width="102px" height="44px" viewBox="0 0 102 44" version="1.1" xmlns="http://www.w3.org/2000/svg" xmlns:xlink="http://www.w3.org/1999/xlink">
    <!-- Generator: Sketch 39.1 (31720) - http://www.bohemiancoding.com/sketch -->
    <title>youzan-logo</title>
    <desc>Created with Sketch.</desc>
    <defs>
        <path d="M11.4616719,5.73728 C10.9489586,6.686975 10.3805222,7.61892 9.74666502,8.540895 L23.3537665,8.518165 C23.7809606,8.517455 24.1273084,8.862475 24.1273084,9.28881 L24.1273084,23.041605 C24.1273084,25.67089 23.3111576,26.73377 19.9477704,26.73377 C19.1053911,26.73377 17.5541369,26.733775 17.5541369,26.733775 L17.5541369,23.80044 C20.6936768,24.18686 21.1887034,23.65742 21.1887034,22.504095 L21.1887034,21.639035 L8.97035961,21.639035 L8.97035961,26.73377 L6.18641281,26.70138 L6.18279507,12.899345 C4.86755783,14.279815 3.36587665,15.66586 1.64365438,17.08465 C1.64365438,17.08465 0.536100197,14.42228 0.3092733,14.193545 C4.5229335,10.556005 6.85187488,8.009285 8.336,5.73728 L0.618599606,5.73728 L0.618599606,3.11272 L9.7680197,3.11272 C10.1697892,2.215825 10.4984502,1.31066 10.8263074,0.34059 L13.7649123,0.334905 C13.4517271,1.285515 13.1068365,2.20947 12.7228542,3.11272 L27.0659133,3.11272 L27.0659133,5.73728 L11.4616719,5.73728 L11.4616719,5.73728 Z M8.97035961,16.235525 L8.97035961,19.16886 L21.1887034,19.16886 L21.1887034,16.235525 L8.97035961,16.235525 L8.97035961,16.235525 Z M8.97035961,10.986405 L8.97035961,13.919735 L21.1887034,13.919735 L21.1887034,10.986405 L8.97035961,10.986405 L8.97035961,10.986405 Z" id="path-1"></path>
        <path d="M51.4252719,7.47774 L56.8203182,7.47774 L56.8203182,9.654825 L52.458336,9.654825 L52.458336,11.48816 C52.458336,11.870105 52.6113862,12.061075 52.9174867,12.061075 L54.2949892,12.061075 C54.9171389,12.061075 55.175003,11.52636 55.0984778,9.998575 C55.175003,9.998575 57.279469,10.80066 57.279469,10.80066 C57.279469,13.321505 56.4376926,14.50552 54.7541399,14.35274 L51.5400345,14.35274 C50.4686828,14.35274 49.9330069,13.818025 49.9330069,12.748575 L49.9330069,9.654825 L48.3259793,9.654825 C48.1729291,12.02289 46.9485271,13.8944 44.6527232,15.26941 L52.9545182,15.26941 C53.3818631,15.26941 53.7282611,15.61505 53.7282611,16.041365 L53.7282611,22.14441 L50.6640404,22.14441 L50.6640404,17.52127 L36.3854975,17.52127 L36.3854975,22.373575 L33.3212768,22.373575 L33.3212768,16.041505 C33.3212768,15.61509 33.6670217,15.26941 34.0949192,15.26941 L44.0787596,15.26941 C43.5224325,14.68769 42.9696729,14.16335 42.1273941,13.436075 C44.4231478,12.74857 45.6475498,11.488165 45.8006,9.654825 L43.1604581,9.654825 L43.1604581,7.47774 L48.78513,7.47774 L48.78513,5.41524 L45.6858374,5.41524 C45.6093123,5.56802 44.9205862,7.13399 44.7674857,7.36316 C43.6947271,6.891415 43.2752709,6.67531 42.1273941,6.217325 C43.2752709,4.76593 44.0787596,2.970805 44.5379103,0.83191 L47.0632897,1.404825 C47.0632897,1.404825 46.4893261,3.27635 46.4893261,3.35274 L48.78513,3.35274 L48.78513,0.48816 L51.4252719,0.513485 L51.4252719,3.35274 L56.0167793,3.35274 L56.0167793,5.41524 L51.4252719,5.41524 L51.4252719,7.47774 L51.4252719,7.47774 Z M34.5138729,1.29024 C34.5138729,1.29024 34.2077724,2.894405 34.0547222,3.35274 L36.4652887,3.35274 L36.4652887,0.48816 L39.1054305,0.513485 L39.1054305,3.35274 L42.4342985,3.35274 L42.4342985,5.41524 L39.1054305,5.41524 L39.1054305,7.47774 L42.6638739,7.47774 L42.6638739,9.654825 L40.36807,9.654825 L40.36807,11.29638 L42.8934493,10.723465 L42.6638739,12.589365 L36.8893172,14.144325 L36.8835389,11.98268 L37.7332039,11.77064 L37.7279281,9.654825 L36.1209005,9.654825 C35.7382749,12.25206 34.1312473,14.42912 31.2997675,16.186075 C30.8406167,15.345795 30.2284158,14.543715 29.4631645,13.779825 C31.9120187,12.863155 33.3277084,11.488165 33.710334,9.654825 L29.8075025,9.654825 L29.8075025,7.47774 L36.4652887,7.47774 L36.4652887,5.41524 L33.4807586,5.41524 C33.4042335,5.7208 32.8685576,6.981215 32.7920325,7.13399 C31.8377547,6.82259 31.2232424,6.68121 30.381466,6.44649 C31.2232424,4.765925 31.7972059,2.89442 32.1033064,0.83191 L34.5138729,1.29024 L34.5138729,1.29024 Z M30.5011025,23.591775 C38.6311557,24.231875 41.8567172,22.79693 42.2554719,18.557345 L44.9620394,18.557345 C44.9620394,18.557345 44.7441714,19.979045 44.3881261,21.26513 C47.3447192,23.70636 49.7963872,24.032095 56.558133,23.551975 L56.558133,26.72774 C50.7713665,26.72774 45.8412493,26.162135 43.4371645,23.479605 C41.2320552,26.162135 35.8255025,26.72774 30.5011025,26.72774 L30.5011025,23.591775 L30.5011025,23.591775 Z" id="path-3"></path>
        <path d="M-1.03350552e-13,24.6628085 C0.263962075,24.1383452 0.76580814,23.7240889 1.34147435,23.617405 C1.34147435,23.617405 4.5060746,23.03394 6.689773,22.61253 L6.689773,43.0963725 L1.86418667,43.8737144 C1.04100258,44.0063192 0.330521819,43.6330383 -2.27373675e-13,42.9810585 L-9.91388143e-14,24.6628085 L-1.03350552e-13,24.6628085 L-1.03350552e-13,24.6628085 Z M8.77683872,42.760172 L31.9823965,39.022045 C33.689776,38.74701 34.9103391,37.13356 34.7516261,35.414675 C34.7516261,35.414675 34.5908982,34.802005 34.7341002,33.935555 C34.8773072,33.069105 35.5834336,32.59298 35.7140187,30.77767 C35.8150992,29.37257 35.3484869,29.18424 35.479077,27.68277 C35.6096672,26.181305 36.2476194,25.93979 36.4046642,23.988475 C36.5617091,22.037165 35.8183753,21.559025 35.9610497,20.213245 C36.103724,18.867465 36.3649194,18.101485 36.3649194,18.101485 C36.9198145,15.808235 35.4660582,14.174225 33.118993,14.451685 L25.3853128,15.365925 C24.2236584,15.50325 23.3546888,14.670975 23.4445342,13.50544 L24.0936913,5.08432 C24.3369739,1.92834 21.9934762,-0.23727 18.8598653,0.247215 L19.2643883,0.184675 C18.0828967,0.367345 17.0099672,1.475895 16.8489177,2.657335 C16.8489177,2.657335 15.041744,20.34332 8.77683872,22.178875 L8.77683872,42.760172 L8.77683872,42.760172 Z" id="path-5"></path>
    </defs>
    <g id="Symbols" stroke="none" stroke-width="1" fill="none" fill-rule="evenodd">
        <g id="youzan-logo">
            <g>
                <g id="domain" transform="translate(44.500000, 33.500000)" fill="#888D92">
                    <path d="M1.38593346,8.02658773 C2.3651815,8.02658773 2.80609947,7.64206625 3.27777916,6.36032797 L5.44135338,0.495093594 L4.50312096,0.495093594 L2.95478111,5.11447836 L2.9342733,5.11447836 L1.38593346,0.495093594 L0.437447129,0.495093594 L2.48310143,6.02707602 L2.37543541,6.35520102 C2.14984947,7.02170492 1.872994,7.26779867 1.36029869,7.26779867 C1.24237877,7.26779867 1.09882408,7.25754477 0.996285019,7.23703695 L0.996285019,7.99069906 C1.10395103,8.01120687 1.27314049,8.02658773 1.38593346,8.02658773 L1.38593346,8.02658773 Z M8.29851627,6.07321859 C9.85198307,6.07321859 10.846612,4.97092367 10.846612,3.25852133 C10.846612,1.54099203 9.85198307,0.443824062 8.29851627,0.443824062 C6.74504947,0.443824062 5.75042057,1.54099203 5.75042057,3.25852133 C5.75042057,4.97092367 6.74504947,6.07321859 8.29851627,6.07321859 L8.29851627,6.07321859 Z M8.29851627,5.27854086 C7.27312564,5.27854086 6.65789127,4.52487875 6.65789127,3.25852133 C6.65789127,1.99216391 7.26799869,1.2385018 8.29851627,1.2385018 C9.32903385,1.2385018 9.93914127,1.98703695 9.93914127,3.25852133 C9.93914127,4.52487875 9.32903385,5.27854086 8.29851627,5.27854086 L8.29851627,5.27854086 Z M16.4398862,0.495093594 L15.5477963,0.495093594 L15.5477963,3.70456625 C15.5477963,4.65305258 14.9992124,5.27854086 14.0917417,5.27854086 C13.2252866,5.27854086 12.7997495,4.79148031 12.7997495,3.88400961 L12.7997495,0.495093594 L11.9076596,0.495093594 L11.9076596,4.0378182 C11.9076596,5.29392172 12.6100522,6.07321859 13.8200131,6.07321859 C14.6659604,6.07321859 15.2350522,5.74509359 15.5785581,5.10935141 L15.5990659,5.10935141 L15.5990659,6.02194906 L16.4398862,6.02194906 L16.4398862,0.495093594 Z M17.6803772,6.02194906 L21.7819397,6.02194906 L21.7819397,5.28366781 L18.7057678,5.28366781 L18.7057678,5.26828695 L21.7665589,1.15647055 L21.7665589,0.495093594 L17.6855042,0.495093594 L17.6855042,1.23337484 L20.761676,1.23337484 L20.761676,1.2487557 L17.6803772,5.37595297 L17.6803772,6.02194906 Z M24.8271182,5.29904867 C24.1298526,5.29904867 23.6838077,4.96579672 23.6838077,4.45310141 C23.6838077,3.91989828 24.1144717,3.61740805 24.9450382,3.56613852 L26.3908389,3.47385336 L26.3908389,3.91989828 C26.3908389,4.71457602 25.729462,5.29904867 24.8271182,5.29904867 L24.8271182,5.29904867 Z M24.637421,6.07321859 C25.4115909,6.07321859 26.1037296,5.6784432 26.4164737,5.06320883 L26.4369815,5.06320883 L26.4369815,6.02194906 L27.2829288,6.02194906 L27.2829288,2.22800375 C27.2829288,1.14108969 26.4421085,0.443824062 25.1347354,0.443824062 C23.976044,0.443824062 23.0685733,1.15647055 23.0429385,2.08957602 L23.8991397,2.08957602 C24.0068057,1.5666268 24.4836124,1.2385018 25.1244815,1.2385018 C25.9396671,1.2385018 26.3908389,1.61789633 26.3908389,2.30490805 L26.3908389,2.76633383 L24.8424991,2.85861898 C23.4992374,2.94065023 22.77121,3.49948812 22.77121,4.44797445 C22.77121,5.4272225 23.5146182,6.07321859 24.637421,6.07321859 L24.637421,6.07321859 Z M28.6157049,6.02194906 L29.5077948,6.02194906 L29.5077948,2.81247641 C29.5077948,1.86399008 30.0563788,1.2385018 30.9638495,1.2385018 C31.8354315,1.2385018 32.2558417,1.7306893 32.2558417,2.63303305 L32.2558417,6.02194906 L33.1479315,6.02194906 L33.1479315,2.47922445 C33.1479315,1.22312094 32.4455389,0.443824062 31.230451,0.443824062 C30.3742499,0.443824062 29.8256659,0.766822109 29.4770331,1.39231039 L29.4565253,1.39231039 L29.4565253,0.495093594 L28.6157049,0.495093594 L28.6157049,6.02194906 Z M35.208735,6.07321859 C35.541987,6.07321859 35.7932077,5.81687094 35.7932077,5.48874594 C35.7932077,5.15549398 35.541987,4.90427328 35.208735,4.90427328 C34.88061,4.90427328 34.6242624,5.15549398 34.6242624,5.48874594 C34.6242624,5.81687094 34.88061,6.07321859 35.208735,6.07321859 L35.208735,6.07321859 Z M41.2511714,2.29465414 C41.1383784,1.32566 40.302685,0.443824062 38.9337885,0.443824062 C37.4213374,0.443824062 36.4113276,1.56149984 36.4113276,3.25852133 C36.4113276,4.99655844 37.4264643,6.07321859 38.9440425,6.07321859 C40.2052729,6.07321859 41.1127436,5.32981039 41.2614253,4.25315023 L40.3847163,4.25315023 C40.2309077,4.91965414 39.7182124,5.27854086 38.9491694,5.27854086 C37.9853022,5.27854086 37.3187983,4.51462484 37.3187983,3.25852133 C37.3187983,2.03830648 37.9750483,1.2385018 38.9389155,1.2385018 C39.7694819,1.2385018 40.2616694,1.70505453 40.3744624,2.29465414 L41.2511714,2.29465414 Z M44.5424436,6.07321859 C46.0959104,6.07321859 47.0905393,4.97092367 47.0905393,3.25852133 C47.0905393,1.54099203 46.0959104,0.443824062 44.5424436,0.443824062 C42.9889768,0.443824062 41.9943479,1.54099203 41.9943479,3.25852133 C41.9943479,4.97092367 42.9889768,6.07321859 44.5424436,6.07321859 L44.5424436,6.07321859 Z M44.5424436,5.27854086 C43.517053,5.27854086 42.9018186,4.52487875 42.9018186,3.25852133 C42.9018186,1.99216391 43.5119261,1.2385018 44.5424436,1.2385018 C45.5729612,1.2385018 46.1830686,1.98703695 46.1830686,3.25852133 C46.1830686,4.52487875 45.5729612,5.27854086 44.5424436,5.27854086 L44.5424436,5.27854086 Z M48.1772218,6.02194906 L49.0693116,6.02194906 L49.0693116,2.59201742 C49.0693116,1.8178475 49.6127686,1.2385018 50.3510499,1.2385018 C51.0431886,1.2385018 51.4994874,1.67941977 51.4994874,2.34592367 L51.4994874,6.02194906 L52.3915772,6.02194906 L52.3915772,2.54587484 C52.3915772,1.78708578 52.9196534,1.2385018 53.6579346,1.2385018 C54.3962159,1.2385018 54.821753,1.68967367 54.821753,2.45358969 L54.821753,6.02194906 L55.7138428,6.02194906 L55.7138428,2.24851156 C55.7138428,1.15134359 55.0063233,0.443824062 53.9142823,0.443824062 C53.1401124,0.443824062 52.4889893,0.8334725 52.1762452,1.4897225 L52.1557374,1.4897225 C51.9147706,0.823218594 51.3559327,0.443824062 50.6073975,0.443824062 C49.8896241,0.443824062 49.3000245,0.802710781 49.0385499,1.39231039 L49.0180421,1.39231039 L49.0180421,0.495093594 L48.1772218,0.495093594 L48.1772218,6.02194906 Z" id="youzan.com"></path>
                </g>
                <g id="text" transform="translate(44.500000, 4.500000)">
                    <mask id="mask-2" fill="white">
                        <use xlink:href="#path-1"></use>
                    </mask>
                    <use id="you" fill="#2C3A46" xlink:href="#path-1"></use>
                    <mask id="mask-4" fill="white">
                        <use xlink:href="#path-3"></use>
                    </mask>
                    <use id="zan" fill="#2C3A46" xlink:href="#path-3"></use>
                </g>
                <g id="figure">
                    <mask id="mask-6" fill="white">
                        <use xlink:href="#path-5"></use>
                    </mask>
                    <use id="thumb" fill="#EE0000" xlink:href="#path-5"></use>
                </g>
            </g>
        </g>
    </g>
</svg>
