<?xml version="1.0" encoding="UTF-8" standalone="no"?>
<svg width="102px" height="44px" viewBox="0 0 102 44" version="1.1" xmlns="http://www.w3.org/2000/svg" xmlns:xlink="http://www.w3.org/1999/xlink">
    <!-- Generator: Sketch 39.1 (31720) - http://www.bohemiancoding.com/sketch -->
    <title>youzan-logo</title>
    <desc>Created with Sketch.</desc>
    <defs>
        <path d="M-4.21173769e-15,24.6628085 C0.263962075,24.1383452 0.76580814,23.7240889 1.34147435,23.617405 C1.34147435,23.617405 4.5060746,23.03394 6.689773,22.61253 L6.689773,43.0963725 L1.86418667,43.8737145 C1.04100258,44.0063192 0.330521819,43.6330383 -1.28234861e-13,42.9810585 L2.5243549e-29,24.6628085 L-4.21173769e-15,24.6628085 L-4.21173769e-15,24.6628085 Z M8.77683872,42.760172 L31.9823965,39.022045 C33.689776,38.74701 34.9103391,37.13356 34.7516261,35.414675 C34.7516261,35.414675 34.5908982,34.802005 34.7341002,33.935555 C34.8773072,33.069105 35.5834336,32.59298 35.7140187,30.77767 C35.8150992,29.37257 35.3484869,29.18424 35.479077,27.68277 C35.6096672,26.181305 36.2476194,25.93979 36.4046642,23.988475 C36.5617091,22.037165 35.8183753,21.559025 35.9610497,20.213245 C36.103724,18.867465 36.3649194,18.101485 36.3649194,18.101485 C36.9198145,15.808235 35.4660582,14.174225 33.118993,14.451685 L25.3853128,15.365925 C24.2236584,15.50325 23.3546888,14.670975 23.4445342,13.50544 L24.0936913,5.08432 C24.3369739,1.92834 21.9934762,-0.23727 18.8598653,0.247215 L19.2643883,0.184675 C18.0828967,0.367345 17.0099672,1.475895 16.8489177,2.657335 C16.8489177,2.657335 15.041744,20.34332 8.77683872,22.178875 L8.77683872,42.760172 L8.77683872,42.760172 Z" id="path-1"></path>
        <path d="M11.2424601,5.73728 C10.7297468,6.686975 10.1613103,7.61892 9.5274532,8.540895 L23.1345547,8.518165 C23.5617488,8.517455 23.9080966,8.862475 23.9080966,9.28881 L23.9080966,23.041605 C23.9080966,25.67089 23.0919458,26.73377 19.7285586,26.73377 C18.8861793,26.73377 17.3349251,26.733775 17.3349251,26.733775 L17.3349251,23.80044 C20.474465,24.18686 20.9694916,23.65742 20.9694916,22.504095 L20.9694916,21.639035 L8.75114778,21.639035 L8.75114778,26.73377 L5.96720099,26.70138 L5.96358325,12.899345 C4.64834601,14.279815 3.14666483,15.66586 1.42444256,17.08465 C1.42444256,17.08465 0.316888374,14.42228 0.0900614778,14.193545 C4.30372167,10.556005 6.63266305,8.009285 8.11678818,5.73728 L0.399387783,5.73728 L0.399387783,3.11272 L9.54880788,3.11272 C9.95057734,2.215825 10.2792384,1.31066 10.6070956,0.34059 L13.5457005,0.334905 C13.2325153,1.285515 12.8876246,2.20947 12.5036424,3.11272 L26.8467015,3.11272 L26.8467015,5.73728 L11.2424601,5.73728 L11.2424601,5.73728 Z M8.75114778,16.235525 L8.75114778,19.16886 L20.9694916,19.16886 L20.9694916,16.235525 L8.75114778,16.235525 L8.75114778,16.235525 Z M8.75114778,10.986405 L8.75114778,13.919735 L20.9694916,13.919735 L20.9694916,10.986405 L8.75114778,10.986405 L8.75114778,10.986405 Z" id="path-3"></path>
        <path d="M22.063203,7.47774 L27.4582493,7.47774 L27.4582493,9.654825 L23.096267,9.654825 L23.096267,11.48816 C23.096267,11.870105 23.2493172,12.061075 23.5554177,12.061075 L24.9329202,12.061075 C25.55507,12.061075 25.812934,11.52636 25.7364089,9.998575 C25.812934,9.998575 27.9174,10.80066 27.9174,10.80066 C27.9174,13.321505 27.0756236,14.50552 25.3920709,14.35274 L22.1779655,14.35274 C21.1066138,14.35274 20.5709379,13.818025 20.5709379,12.748575 L20.5709379,9.654825 L18.9639103,9.654825 C18.8108601,12.02289 17.5864581,13.8944 15.2906542,15.26941 L23.5924493,15.26941 C24.0197941,15.26941 24.3661921,15.61505 24.3661921,16.041365 L24.3661921,22.14441 L21.3019714,22.14441 L21.3019714,17.52127 L7.02342857,17.52127 L7.02342857,22.373575 L3.95920788,22.373575 L3.95920788,16.041505 C3.95920788,15.61509 4.30495271,15.26941 4.73285025,15.26941 L14.7166906,15.26941 C14.1603635,14.68769 13.6076039,14.16335 12.7653251,13.436075 C15.0610788,12.74857 16.2854808,11.488165 16.438531,9.654825 L13.7983892,9.654825 L13.7983892,7.47774 L19.4230611,7.47774 L19.4230611,5.41524 L16.3237685,5.41524 C16.2472433,5.56802 15.5585172,7.13399 15.4054167,7.36316 C14.3326581,6.891415 13.913202,6.67531 12.7653251,6.217325 C13.913202,4.76593 14.7166906,2.970805 15.1758414,0.83191 L17.7012207,1.404825 C17.7012207,1.404825 17.1272571,3.27635 17.1272571,3.35274 L19.4230611,3.35274 L19.4230611,0.48816 L22.063203,0.513485 L22.063203,3.35274 L26.6547103,3.35274 L26.6547103,5.41524 L22.063203,5.41524 L22.063203,7.47774 L22.063203,7.47774 Z M5.15180394,1.29024 C5.15180394,1.29024 4.84570345,2.894405 4.6926532,3.35274 L7.1032197,3.35274 L7.1032197,0.48816 L9.74336158,0.513485 L9.74336158,3.35274 L13.0722296,3.35274 L13.0722296,5.41524 L9.74336158,5.41524 L9.74336158,7.47774 L13.3018049,7.47774 L13.3018049,9.654825 L11.006001,9.654825 L11.006001,11.29638 L13.5313803,10.723465 L13.3018049,12.589365 L7.52724828,14.144325 L7.52146995,11.98268 L8.37113498,11.77064 L8.36585911,9.654825 L6.75883153,9.654825 C6.37620591,12.25206 4.76917833,14.42912 1.93769852,16.186075 C1.47854778,15.345795 0.866346798,14.543715 0.101095567,13.779825 C2.54994975,12.863155 3.96563941,11.488165 4.34826502,9.654825 L0.445433498,9.654825 L0.445433498,7.47774 L7.1032197,7.47774 L7.1032197,5.41524 L4.11868966,5.41524 C4.04216453,5.7208 3.50648867,6.981215 3.42996355,7.13399 C2.47568571,6.82259 1.8611734,6.68121 1.01939704,6.44649 C1.8611734,4.765925 2.43513695,2.89442 2.74123744,0.83191 L5.15180394,1.29024 L5.15180394,1.29024 Z M1.1390335,23.591775 C9.2690867,24.231875 12.4946483,22.79693 12.893403,18.557345 L15.5999704,18.557345 C15.5999704,18.557345 15.3821025,19.979045 15.0260571,21.26513 C17.9826502,23.70636 20.4343182,24.032095 27.196064,23.551975 L27.196064,26.72774 C21.4092975,26.72774 16.4791803,26.162135 14.0750956,23.479605 C11.8699862,26.162135 6.4634335,26.72774 1.1390335,26.72774 L1.1390335,23.591775 L1.1390335,23.591775 Z" id="path-5"></path>
    </defs>
    <g id="Symbols" stroke="none" stroke-width="1" fill="none" fill-rule="evenodd">
        <g id="youzan-copyright" transform="translate(-10.000000, 0.000000)">
            <g id="youzan-logo" transform="translate(10.000000, 0.000000)">
                <g id="Group-3">
                    <mask id="mask-2" fill="white">
                        <use xlink:href="#path-1"></use>
                    </mask>
                    <g id="Clip-2"></g>
                    <polygon id="Fill-1" fill="#EE0000" mask="url(#mask-2)" points="-2.70986264 -2.32054 38.9953235 -2.32054 38.9953235 46.400319 -2.70986264 46.400319"></polygon>
                </g>
                <path d="M45.8859335,41.5265877 C46.8651815,41.5265877 47.3060995,41.1420662 47.7777792,39.860328 L49.9413534,33.9950936 L49.003121,33.9950936 L47.4547811,38.6144784 L47.4342733,38.6144784 L45.8859335,33.9950936 L44.9374471,33.9950936 L46.9831014,39.527076 L46.8754354,39.855201 C46.6498495,40.5217049 46.372994,40.7677987 45.8602987,40.7677987 C45.7423788,40.7677987 45.5988241,40.7575448 45.496285,40.737037 L45.496285,41.4906991 C45.603951,41.5112069 45.7731405,41.5265877 45.8859335,41.5265877 L45.8859335,41.5265877 Z M52.7985163,39.5732186 C54.3519831,39.5732186 55.346612,38.4709237 55.346612,36.7585213 C55.346612,35.040992 54.3519831,33.9438241 52.7985163,33.9438241 C51.2450495,33.9438241 50.2504206,35.040992 50.2504206,36.7585213 C50.2504206,38.4709237 51.2450495,39.5732186 52.7985163,39.5732186 L52.7985163,39.5732186 Z M52.7985163,38.7785409 C51.7731256,38.7785409 51.1578913,38.0248787 51.1578913,36.7585213 C51.1578913,35.4921639 51.7679987,34.7385018 52.7985163,34.7385018 C53.8290338,34.7385018 54.4391413,35.487037 54.4391413,36.7585213 C54.4391413,38.0248787 53.8290338,38.7785409 52.7985163,38.7785409 L52.7985163,38.7785409 Z M60.9398862,33.9950936 L60.0477963,33.9950936 L60.0477963,37.2045662 C60.0477963,38.1530526 59.4992124,38.7785409 58.5917417,38.7785409 C57.7252866,38.7785409 57.2997495,38.2914803 57.2997495,37.3840096 L57.2997495,33.9950936 L56.4076596,33.9950936 L56.4076596,37.5378182 C56.4076596,38.7939217 57.1100522,39.5732186 58.3200131,39.5732186 C59.1659604,39.5732186 59.7350522,39.2450936 60.0785581,38.6093514 L60.0990659,38.6093514 L60.0990659,39.5219491 L60.9398862,39.5219491 L60.9398862,33.9950936 Z M62.1803772,39.5219491 L66.2819397,39.5219491 L66.2819397,38.7836678 L63.2057678,38.7836678 L63.2057678,38.768287 L66.2665589,34.6564705 L66.2665589,33.9950936 L62.1855042,33.9950936 L62.1855042,34.7333748 L65.261676,34.7333748 L65.261676,34.7487557 L62.1803772,38.875953 L62.1803772,39.5219491 Z M69.3271182,38.7990487 C68.6298526,38.7990487 68.1838077,38.4657967 68.1838077,37.9531014 C68.1838077,37.4198983 68.6144717,37.117408 69.4450382,37.0661385 L70.8908389,36.9738534 L70.8908389,37.4198983 C70.8908389,38.214576 70.229462,38.7990487 69.3271182,38.7990487 L69.3271182,38.7990487 Z M69.137421,39.5732186 C69.9115909,39.5732186 70.6037296,39.1784432 70.9164737,38.5632088 L70.9369815,38.5632088 L70.9369815,39.5219491 L71.7829288,39.5219491 L71.7829288,35.7280037 C71.7829288,34.6410897 70.9421085,33.9438241 69.6347354,33.9438241 C68.476044,33.9438241 67.5685733,34.6564705 67.5429385,35.589576 L68.3991397,35.589576 C68.5068057,35.0666268 68.9836124,34.7385018 69.6244815,34.7385018 C70.4396671,34.7385018 70.8908389,35.1178963 70.8908389,35.804908 L70.8908389,36.2663338 L69.3424991,36.358619 C67.9992374,36.4406502 67.27121,36.9994881 67.27121,37.9479745 C67.27121,38.9272225 68.0146182,39.5732186 69.137421,39.5732186 L69.137421,39.5732186 Z M73.1157049,39.5219491 L74.0077948,39.5219491 L74.0077948,36.3124764 C74.0077948,35.3639901 74.5563788,34.7385018 75.4638495,34.7385018 C76.3354315,34.7385018 76.7558417,35.2306893 76.7558417,36.133033 L76.7558417,39.5219491 L77.6479315,39.5219491 L77.6479315,35.9792245 C77.6479315,34.7231209 76.9455389,33.9438241 75.730451,33.9438241 C74.8742499,33.9438241 74.3256659,34.2668221 73.9770331,34.8923104 L73.9565253,34.8923104 L73.9565253,33.9950936 L73.1157049,33.9950936 L73.1157049,39.5219491 Z M79.708735,39.5732186 C80.041987,39.5732186 80.2932077,39.3168709 80.2932077,38.9887459 C80.2932077,38.655494 80.041987,38.4042733 79.708735,38.4042733 C79.38061,38.4042733 79.1242624,38.655494 79.1242624,38.9887459 C79.1242624,39.3168709 79.38061,39.5732186 79.708735,39.5732186 L79.708735,39.5732186 Z M85.7511714,35.7946541 C85.6383784,34.82566 84.802685,33.9438241 83.4337885,33.9438241 C81.9213374,33.9438241 80.9113276,35.0614998 80.9113276,36.7585213 C80.9113276,38.4965584 81.9264643,39.5732186 83.4440425,39.5732186 C84.7052729,39.5732186 85.6127436,38.8298104 85.7614253,37.7531502 L84.8847163,37.7531502 C84.7309077,38.4196541 84.2182124,38.7785409 83.4491694,38.7785409 C82.4853022,38.7785409 81.8187983,38.0146248 81.8187983,36.7585213 C81.8187983,35.5383065 82.4750483,34.7385018 83.4389155,34.7385018 C84.2694819,34.7385018 84.7616694,35.2050545 84.8744624,35.7946541 L85.7511714,35.7946541 Z M89.0424436,39.5732186 C90.5959104,39.5732186 91.5905393,38.4709237 91.5905393,36.7585213 C91.5905393,35.040992 90.5959104,33.9438241 89.0424436,33.9438241 C87.4889768,33.9438241 86.4943479,35.040992 86.4943479,36.7585213 C86.4943479,38.4709237 87.4889768,39.5732186 89.0424436,39.5732186 L89.0424436,39.5732186 Z M89.0424436,38.7785409 C88.017053,38.7785409 87.4018186,38.0248787 87.4018186,36.7585213 C87.4018186,35.4921639 88.0119261,34.7385018 89.0424436,34.7385018 C90.0729612,34.7385018 90.6830686,35.487037 90.6830686,36.7585213 C90.6830686,38.0248787 90.0729612,38.7785409 89.0424436,38.7785409 L89.0424436,38.7785409 Z M92.6772218,39.5219491 L93.5693116,39.5219491 L93.5693116,36.0920174 C93.5693116,35.3178475 94.1127686,34.7385018 94.8510499,34.7385018 C95.5431886,34.7385018 95.9994874,35.1794198 95.9994874,35.8459237 L95.9994874,39.5219491 L96.8915772,39.5219491 L96.8915772,36.0458748 C96.8915772,35.2870858 97.4196534,34.7385018 98.1579346,34.7385018 C98.8962159,34.7385018 99.321753,35.1896737 99.321753,35.9535897 L99.321753,39.5219491 L100.213843,39.5219491 L100.213843,35.7485116 C100.213843,34.6513436 99.5063233,33.9438241 98.4142823,33.9438241 C97.6401124,33.9438241 96.9889893,34.3334725 96.6762452,34.9897225 L96.6557374,34.9897225 C96.4147706,34.3232186 95.8559327,33.9438241 95.1073975,33.9438241 C94.3896241,33.9438241 93.8000245,34.3027108 93.5385499,34.8923104 L93.5180421,34.8923104 L93.5180421,33.9950936 L92.6772218,33.9950936 L92.6772218,39.5219491 Z" id="youzan.com" fill="#888D92"></path>
                <g id="Group-7" transform="translate(44.719212, 4.500000)">
                    <mask id="mask-4" fill="white">
                        <use xlink:href="#path-3"></use>
                    </mask>
                    <g id="Clip-6"></g>
                    <polygon id="Fill-5" fill="#2C3A46" mask="url(#mask-4)" points="-2.42225379 -2.165095 29.3590167 -2.165095 29.3590167 29.233775 -2.42225379 29.233775"></polygon>
                </g>
                <g id="Group-10" transform="translate(73.862069, 4.500000)">
                    <mask id="mask-6" fill="white">
                        <use xlink:href="#path-5"></use>
                    </mask>
                    <g id="Clip-9"></g>
                    <polygon id="Fill-8" fill="#2C3A46" mask="url(#mask-6)" points="-2.4112197 -2.01184 30.4297153 -2.01184 30.4297153 29.22774 -2.4112197 29.22774"></polygon>
                </g>
            </g>
        </g>
    </g>
</svg>